:SAMPLES-PER-SECOND 30
:FULLY-SPECIFIED
:DEGREES
322
root  -54.3472 35.0336 30.0829 -174.88 43.972 178.491
RightUpLeg  -4.3775 -10.2805 -2.36468
RightLeg  8.28679 -3.8906 -0.311476
RightFoot  0.803185 -0.0548137 0.0998641
RightToes  -19.3808 -0.0821793 -0.176343
Spine  -2.63626 1.0565 -1.93426
Spine1  -4.90122 1.80866 -3.00389
HEad  -60.7433 -7.10031 9.27236
LeftShoulder1  -1.94126e-019 -3.10601e-018 -2.51263e-017
LeftArm  8.96546 16.3744 -60.6606
LeftForeArm  45.2289 -75.5497 -43.9102
LeftHand  -0.079833 3.4048 3.75938
RightShoulder  -4.96962e-017 0 -2.36833e-017
RightArm  16.5369 15.4408 30.1218
RightForeArm  132.156 76.9224 130.238
RightHand  1.38303 2.21884 20.7045
LeftUpLeg  -5.03194 -6.53708 -0.0896045
LeftLeg  4.53045 14.2535 0.20834
LeftFoot  6.40662 -0.094415 1.76711
LeftToes  -18.4352 1.48321e-006 1.01846e-007
323
root  -54.374 35.0407 30.106 -175.133 44.2115 178.393
RightUpLeg  -4.27567 -10.2974 -2.48143
RightLeg  8.25187 -3.63158 -0.288486
RightFoot  0.914853 -0.0546627 0.0932566
RightToes  -19.7473 -0.0821143 -0.176264
Spine  -2.72129 1.17261 -1.96965
Spine1  -5.01207 2.11477 -3.14319
HEad  -60.5859 -6.96399 9.71742
LeftShoulder1  -1.94126e-019 -3.10601e-018 -2.51263e-017
LeftArm  11.5577 9.69329 -58.5149
LeftForeArm  59.075 -78.2487 -60.5164
LeftHand  -0.105851 1.08198 2.73301
RightShoulder  -4.96962e-017 0 -2.36833e-017
RightArm  18.5393 17.572 29.635
RightForeArm  126.686 77.2376 127.491
RightHand  1.6141 3.09203 21.593
LeftUpLeg  -4.92606 -7.01554 -0.162895
LeftLeg  4.64391 14.8481 0.24593
LeftFoot  6.49113 -0.100244 1.86101
LeftToes  -18.5677 1.48321e-006 1.01846e-007
324
root  -54.4213 35.0341 30.1555 -175.396 44.3273 178.354
RightUpLeg  -4.19123 -10.3176 -2.54277
RightLeg  8.31773 -3.48688 -0.281006
RightFoot  0.846146 -0.055459 0.10046
RightToes  -19.9205 -0.0820566 -0.176183
Spine  -2.77085 1.22304 -2.00045
Spine1  -5.06488 2.31724 -3.24254
HEad  -60.5202 -6.89403 9.96293
LeftShoulder1  -1.94126e-019 -3.10601e-018 -2.51263e-017
LeftArm  10.5361 2.5697 -57.0578
LeftForeArm  61.1513 -78.6915 -68.4867
LeftHand  0.139582 -0.696174 -2.60757
RightShoulder  -4.96962e-017 0 -2.36833e-017
RightArm  15.8399 19.6668 30.1128
RightForeArm  98.9136 79.3003 103.913
RightHand  1.70224 2.83048 23.4829
LeftUpLeg  -4.87139 -6.31708 -0.231069
LeftLeg  4.81017 14.3513 0.279056
LeftFoot  6.42865 -0.0955904 1.79037
LeftToes  -18.3293 1.48321e-006 1.01846e-007
325
root  -54.4779 35.0272 30.2138 -175.678 44.2342 178.371
RightUpLeg  -4.21093 -10.2884 -2.5537
RightLeg  8.71851 -3.57373 -0.313192
RightFoot  0.756103 -0.0562935 0.108491
RightToes  -19.953 -0.082006 -0.176124
Spine  -2.71894 1.16631 -1.93065
Spine1  -4.93124 2.32195 -3.15725
HEad  -60.6193 -6.6661 9.85959
LeftShoulder1  -1.94126e-019 -3.10601e-018 -2.51263e-017
LeftArm  5.06361 -4.36781 -57.1059
LeftForeArm  45.5451 -77.3749 -58.3423
LeftHand  0.727727 -2.79128 -10.1069
RightShoulder  -4.96962e-017 0 -2.36833e-017
RightArm  8.99038 21.6323 31.3991
RightForeArm  56.6782 78.1996 61.4819
RightHand  1.50751 1.89883 23.5358
LeftUpLeg  -4.97887 -6.22888 -0.227825
LeftLeg  5.34121 14.1741 0.405708
LeftFoot  6.31342 -0.0927432 1.74607
LeftToes  -18.2577 1.48321e-006 1.01846e-007
326
root  -54.551 35.0217 30.2834 -175.982 44.2885 178.362
RightUpLeg  -4.28951 -10.3647 -2.60273
RightLeg  9.12439 -3.44308 -0.326327
RightFoot  0.684296 -0.0571923 0.117726
RightToes  -19.8815 -0.0819622 -0.176113
Spine  -2.58784 1.03629 -1.81325
Spine1  -4.66492 2.17024 -2.96809
HEad  -60.6036 -6.10308 9.44089
LeftShoulder1  -1.94126e-019 -3.10601e-018 -2.51263e-017
LeftArm  -1.95438 -10.1002 -58.1555
LeftForeArm  31.0347 -74.418 -43.0463
LeftHand  0.748812 -2.96124 -10.1785
RightShoulder  -4.96962e-017 0 -2.36833e-017
RightArm  -0.878724 23.8916 34.1962
RightForeArm  32.0331 71.271 32.0998
RightHand  1.00574 0.998107 18.0827
LeftUpLeg  -5.07229 -6.1737 -0.250152
LeftLeg  5.8285 14.1572 0.524476
LeftFoot  6.25481 -0.0921787 1.73536
LeftToes  -18.3585 1.48321e-006 1.01846e-007
327
root  -54.6366 35.0206 30.3593 -176.087 44.605 178.425
RightUpLeg  -4.48517 -10.3551 -2.58137
RightLeg  9.31156 -3.1846 -0.3123
RightFoot  0.811866 -0.0573022 0.115979
RightToes  -20.0582 -0.0819247 -0.176147
Spine  -2.48224 0.985104 -1.6607
Spine1  -4.45939 2.14512 -2.69408
HEad  -60.5411 -5.57671 8.98833
LeftShoulder1  -1.94126e-019 -3.10601e-018 -2.51263e-017
LeftArm  -8.09876 -14.7935 -59.9553
LeftForeArm  24.2804 -70.2876 -31.4142
LeftHand  -0.0809682 0.0966384 1.78124
RightShoulder  -4.96962e-017 0 -2.36833e-017
RightArm  -12.6341 25.5026 38.3545
RightForeArm  28.0678 63.6765 20.5885
RightHand  0.167089 -1.45405 5.2268
LeftUpLeg  -5.24193 -5.79747 -0.222685
LeftLeg  6.17225 14.1146 0.606836
LeftFoot  6.21096 -0.0917874 1.72528
LeftToes  -18.2759 1.48321e-006 1.01846e-007
328
root  -54.73 35.0254 30.4359 -176.064 44.9705 178.5
RightUpLeg  -4.67511 -10.113 -2.52058
RightLeg  9.22601 -3.07357 -0.296756
RightFoot  1.04951 -0.0569297 0.107635
RightToes  -20.1952 -0.0818934 -0.176223
Spine  -2.38875 1.04289 -1.56135
Spine1  -4.3063 2.32808 -2.53584
HEad  -60.5084 -5.74008 8.90077
LeftShoulder1  -1.94126e-019 -3.10601e-018 -2.51263e-017
LeftArm  -16.4858 -18.6206 -62.9781
LeftForeArm  18.2134 -66.2558 -25.1566
LeftHand  -0.0192408 5.34425 14.6542
RightShoulder  -4.96962e-017 0 -2.36833e-017
RightArm  -27.2795 26.2956 43.9498
RightForeArm  25.9997 58.6374 16.3997
RightHand  0.043023 -5.96816 -12.5208
LeftUpLeg  -5.4703 -6.12939 -0.156455
LeftLeg  6.39413 14.6551 0.685821
LeftFoot  6.35226 -0.09881 1.82823
LeftToes  -18.7752 1.48321e-006 1.01846e-007
329
root  -54.8125 35.032 30.5188 -175.819 45.2473 178.632
RightUpLeg  -4.93268 -9.76607 -2.35345
RightLeg  8.9517 -3.16199 -0.290027
RightFoot  1.33404 -0.0560507 0.0923561
RightToes  -20.2503 -0.0818679 -0.176337
Spine  -2.26982 1.11987 -1.46418
Spine1  -4.08868 2.52208 -2.3719
HEad  -61.0917 -6.10683 8.84904
LeftShoulder1  -1.94126e-019 -3.10601e-018 -2.51263e-017
LeftArm  -24.9375 -20.9817 -65.3778
LeftForeArm  15.6547 -64.3712 -23.0161
LeftHand  0.571358 8.32994 22.6484
RightShoulder  -4.96962e-017 0 -2.36833e-017
RightArm  -42.311 26.7372 48.9725
RightForeArm  27.331 57.7416 15.6265
RightHand  1.28262 -11.3689 -24.7052
LeftUpLeg  -5.86533 -5.83787 -0.0311662
LeftLeg  6.56731 14.6358 0.728767
LeftFoot  6.40896 -0.100344 1.84344
LeftToes  -18.7515 1.48321e-006 1.01846e-007
